<svg xmlns="http://www.w3.org/2000/svg" viewBox="0 0 1200 630" role="img" aria-hidden="true">
  <defs>
    <linearGradient id="bg" x1="0" y1="0" x2="1" y2="1">
      <stop offset="0%" stop-color="#075E54"/>
      <stop offset="100%" stop-color="#25D366"/>
    </linearGradient>
  </defs>
  <rect width="1200" height="630" fill="url(#bg)"/>
  <circle cx="1000" cy="140" r="200" fill="#ffffff" opacity="0.06"/>
  <circle cx="160" cy="500" r="160" fill="#ffffff" opacity="0.06"/>
  <g stroke="#ffffff" stroke-width="24" stroke-linecap="round" fill="none">
    <path d="M420 260c-30-30-80-30-110 0l-40 40c-30 30-30 80 0 110s80 30 110 0l20-20"/>
    <path d="M500 370c30 30 80 30 110 0l40-40c30-30 30-80 0-110s-80-30-110 0l-20 20"/>
  </g>
  <g transform="translate(700,300)" fill="#ffffff">
    <rect x="0" y="0" width="36" height="36"/>
    <rect x="46" y="0" width="36" height="36"/>
    <rect x="0" y="46" width="36" height="36"/>
    <rect x="92" y="0" width="36" height="36"/>
    <rect x="46" y="46" width="36" height="36"/>
    <rect x="92" y="46" width="36" height="36"/>
    <rect x="0" y="92" width="36" height="36"/>
    <rect x="92" y="92" width="36" height="36"/>
  </g>
</svg>